<svg xmlns="http://www.w3.org/2000/svg" width="800" height="800" viewBox="0 0 800 800" version="1.1">
    <path d="" stroke="#4a90e2" fill="none"/>
    <path d="M 147.814 15.078 C 129.348 17.787, 115.029 24.403, 102.625 35.958 C 87.858 49.715, 77.036 74.513, 74.022 101.500 C 73.433 106.774, 73.004 144.245, 72.986 192 C 72.955 273.382, 72.440 290.044, 69.402 307.981 C 65.860 328.894, 60.128 341.853, 49.852 352.182 C 44.500 357.563, 41.187 359.833, 32.852 363.831 C 27.158 366.563, 19.462 369.585, 15.750 370.547 L 9 372.297 9.007 400.898 L 9.014 429.500 16.154 431.222 C 20.081 432.170, 27.565 435.022, 32.785 437.562 C 49.194 445.544, 59.483 457.868, 65.294 476.500 C 72.096 498.307, 72.950 513.061, 72.977 609.211 C 72.992 661.244, 73.394 693.578, 74.108 700.211 C 78.384 739.923, 97.061 768.967, 125.783 780.568 C 139.196 785.986, 141.710 786.321, 172.250 786.753 L 201 787.161 201 760.210 L 201 733.260 184.750 732.748 C 155.067 731.813, 145.275 725.909, 139.559 705.503 C 137.693 698.844, 137.566 693.760, 136.974 602 C 136.433 518.209, 136.129 504.183, 134.670 495.500 C 129.127 462.527, 118.538 439.649, 100.444 421.556 C 92.896 414.007, 83.857 407.356, 75.781 403.409 L 70.062 400.614 77.960 396.901 C 116.041 379.002, 131.644 352.298, 135.978 297.605 C 136.566 290.188, 137 248.263, 137 198.927 C 137 110.396, 137.252 103.870, 141.157 91.226 C 143.954 82.172, 150.876 75.189, 160.030 72.188 C 167.843 69.627, 180.347 68, 192.224 68 L 201 68 201 41 L 201 14 177.250 14.122 C 164.188 14.189, 150.941 14.619, 147.814 15.078 M 598 41 L 598 68 607.250 68.008 C 634.906 68.030, 649.640 73.053, 656.688 84.862 C 663.478 96.239, 663.279 93.103, 663.982 200 C 664.598 293.763, 664.679 296.840, 666.821 308.500 C 669.951 325.530, 673.409 336.973, 678.949 348.630 C 689.425 370.677, 702.564 385.065, 723.254 397.149 L 730.147 401.174 722.768 405.379 C 688.368 424.982, 669.608 458.343, 665.060 508 C 664.423 514.953, 663.998 553.112, 663.984 604.500 C 663.970 655.563, 663.562 692.295, 662.963 696.500 C 660.920 710.826, 656.080 720.554, 648.565 725.431 C 640.890 730.413, 632.991 732.161, 615 732.859 L 598.500 733.500 598.234 760.250 L 597.967 787 624.234 786.987 C 656.540 786.971, 664.131 785.751, 679.500 778.105 C 700.189 767.812, 715.085 748.859, 722.482 723.415 C 727.252 707.007, 727.216 707.756, 727.997 607 C 728.741 511.047, 728.933 506.129, 732.633 488 C 736.628 468.426, 744.056 454.151, 754.828 445.346 C 761.744 439.693, 773.732 433.748, 783.060 431.345 L 790 429.557 790 400.817 L 790 372.077 785.750 370.982 C 777.306 368.807, 774.370 367.688, 766.564 363.669 C 742.724 351.396, 732.561 330.263, 729.022 285.605 C 728.441 278.271, 728 237.823, 728 191.815 C 728 140.887, 727.603 107.358, 726.928 101.303 C 722.247 59.331, 701.864 30.208, 669.254 18.900 C 658.959 15.330, 646.032 14.012, 621.250 14.006 L 598 14 598 41 M 382.110 32.396 C 376.793 35.343, 377.074 25.099, 377.035 217.498 L 377 396.496 291.750 311.351 C 244.862 264.522, 205.517 225.711, 204.316 225.104 C 201.310 223.585, 196.433 223.721, 193.200 225.415 C 190.102 227.038, 184.766 232.474, 183.120 235.684 C 181.691 238.471, 181.683 243.504, 183.104 246.316 C 183.711 247.517, 222.972 287.313, 270.352 334.750 L 356.496 421 273.198 421 C 182.748 421, 185.772 420.816, 183.195 426.472 C 181.651 429.860, 181.651 442.140, 183.195 445.528 C 185.768 451.177, 182.925 451, 271.194 451 L 352.487 451 323.349 480.250 C 307.323 496.338, 293.713 510.483, 293.105 511.684 C 291.683 514.494, 291.690 519.528, 293.120 522.316 C 294.766 525.526, 300.102 530.962, 303.200 532.585 C 306.434 534.279, 311.310 534.415, 314.316 532.895 C 315.517 532.288, 333.488 514.852, 354.250 494.150 L 392 456.510 429.750 494.150 C 450.512 514.852, 468.483 532.288, 469.684 532.895 C 472.690 534.415, 477.566 534.279, 480.800 532.585 C 483.898 530.962, 489.234 525.526, 490.880 522.316 C 492.310 519.528, 492.317 514.494, 490.895 511.684 C 490.287 510.483, 476.677 496.338, 460.651 480.250 L 431.513 451 512.806 451 C 601.075 451, 598.232 451.177, 600.805 445.528 C 602.349 442.140, 602.349 429.860, 600.805 426.472 C 598.228 420.816, 601.252 421, 510.802 421 L 427.504 421 513.648 334.750 C 561.028 287.313, 600.289 247.517, 600.896 246.316 C 602.317 243.504, 602.309 238.471, 600.880 235.684 C 599.234 232.474, 593.898 227.038, 590.800 225.415 C 587.567 223.721, 582.690 223.585, 579.684 225.104 C 578.483 225.711, 539.138 264.522, 492.250 311.351 L 407 396.496 407 217.795 C 407 81.377, 406.717 38.474, 405.805 36.472 C 405.148 35.030, 403.371 33.209, 401.855 32.425 C 398.345 30.610, 385.366 30.591, 382.110 32.396 M 385.500 582.008 C 374.088 583.256, 366.171 586.834, 358.255 594.320 C 351.397 600.806, 346.534 609.507, 343.863 620.070 C 342.048 627.249, 341.832 630.311, 342.288 642.444 C 342.605 650.872, 343.423 658.366, 344.333 661.160 C 352.705 686.877, 373.065 699.748, 399.759 696.200 C 421.091 693.365, 435.708 679.525, 437.729 660.250 L 438.280 655 427.259 655 L 416.237 655 415.060 659.750 C 413.284 666.921, 409.864 671.390, 403.871 674.377 C 393.978 679.307, 382.522 677.564, 374.893 669.969 C 368.689 663.791, 365.976 656.421, 365.263 643.811 C 364.122 623.606, 370.201 608.895, 381.814 603.758 C 386.794 601.555, 396.906 601.154, 402.330 602.944 C 406.827 604.428, 412.206 610.355, 414.494 616.346 L 416.272 621 427.136 621 C 439.459 621, 439.016 621.404, 436.605 612.350 C 430.934 591.049, 411.008 579.219, 385.500 582.008 M 194.963 583.750 C 194.942 584.163, 201.804 608.913, 210.212 638.750 L 225.499 693 236.034 693 L 246.570 693 255.025 652.500 C 259.675 630.225, 263.714 612, 264 612 C 264.286 612, 268.037 628.538, 272.336 648.750 C 276.636 668.962, 280.586 687.188, 281.115 689.250 L 282.077 693 292.468 693 L 302.858 693 304.370 687.750 C 306.777 679.392, 331.802 588.793, 332.553 585.718 L 333.233 582.937 320.909 583.218 L 308.586 583.500 300.578 623.500 C 296.173 645.500, 292.420 662.773, 292.237 661.884 C 292.055 660.996, 288.171 642.996, 283.606 621.884 L 275.307 583.500 263.891 583.220 L 252.476 582.941 244.606 621.220 C 240.277 642.274, 236.441 660.061, 236.080 660.747 C 235.719 661.432, 231.883 644.782, 227.554 623.747 C 223.226 602.711, 219.482 584.938, 219.235 584.250 C 218.910 583.345, 215.501 583, 206.893 583 C 200.352 583, 194.983 583.337, 194.963 583.750 M 456 638 L 456 693 467.500 693 L 479 693 479 638 L 479 583 467.500 583 L 456 583 456 638 M 529.212 585.750 C 524.539 598.820, 494.366 683.673, 492.942 687.750 L 491.108 693 502.971 693 L 514.835 693 518.500 682 L 522.165 671 542.333 671.016 L 562.500 671.031 565.923 682.016 L 569.345 693 581.246 693 C 591.083 693, 593.091 692.750, 592.823 691.561 C 592.645 690.770, 584.175 666.023, 574 636.568 L 555.500 583.014 542.848 583.007 L 530.196 583 529.212 585.750 M 535.665 630.505 C 531.999 641.503, 529 650.838, 529 651.251 C 529 651.663, 535.105 652, 542.567 652 C 555.035 652, 556.090 651.858, 555.577 650.250 C 555.270 649.288, 552.164 639.952, 548.674 629.505 L 542.330 610.509 535.665 630.505" stroke="none" fill="#040404" fill-rule="evenodd"/>
</svg>