<svg xmlns="http://www.w3.org/2000/svg" width="800" height="800" viewBox="0 0 800 800" version="1.1"><path d="M 146.500 15.109 C 130.575 17.406, 114.843 24.668, 103.955 34.748 C 89.450 48.178, 81.253 63.643, 75.859 87.756 C 73.733 97.260, 73.662 99.857, 72.982 193 C 72.226 296.303, 72.052 299.724, 66.465 320.856 C 59.316 347.892, 42.665 363.585, 13.250 371.005 L 9 372.077 9 401.039 C 9 426.939, 9.169 430, 10.602 430 C 14.187 430, 30.944 436.365, 37.372 440.168 C 56.335 451.388, 65.685 468.922, 70.677 502.623 C 72.026 511.729, 72.403 528.964, 72.993 608.500 C 73.666 699.066, 73.795 703.943, 75.750 713 C 84.060 751.489, 104.018 775.392, 135 783.963 C 144.577 786.612, 160.800 787.964, 183.250 787.984 L 201 788 201 760.632 L 201 733.264 185.250 732.746 C 155.709 731.775, 145.423 725.585, 139.788 705.385 C 137.613 697.588, 137.581 696.418, 136.974 601 C 136.316 497.626, 136.328 497.867, 130.981 476.925 C 122.762 444.735, 104.182 419.024, 78.768 404.670 L 70.963 400.262 76.232 398.021 C 86.073 393.835, 97.283 386.521, 105.132 379.166 C 118.166 366.951, 125.311 354.374, 130.448 334.603 C 136.168 312.587, 136.255 310.840, 136.990 203 C 137.600 113.480, 137.840 102.834, 139.390 96.862 C 142.880 83.411, 150.463 75.028, 162.349 71.482 C 168.579 69.623, 182.692 68.041, 193.250 68.017 L 201 68 201 41 L 201 14 176.750 14.122 C 163.412 14.189, 149.800 14.633, 146.500 15.109 M 598 40.844 L 598 67.688 612.775 68.327 C 644.477 69.699, 655.505 76.134, 661.203 96.586 C 663.385 104.418, 663.414 105.498, 664.012 201 C 664.606 295.870, 664.654 297.711, 666.901 310 C 670.980 332.308, 677.434 349.415, 687.455 364.475 C 694.844 375.580, 709.114 389.032, 720.807 395.916 L 730.007 401.332 723.015 405.126 C 713.327 410.383, 706.693 415.509, 698.428 424.127 C 684.657 438.484, 676.568 453.360, 670.494 475.500 C 664.679 496.694, 664.694 496.401, 663.999 601 C 663.430 686.696, 663.171 698.202, 661.686 703.769 C 655.930 725.352, 645.591 731.660, 614.250 732.714 L 598 733.260 598 760.775 L 598 788.290 624.750 787.679 C 652.265 787.050, 659.722 786.153, 671.400 782.069 C 680.742 778.800, 689.594 773.347, 697.191 766.181 C 711.901 752.305, 719.948 737.033, 725.213 713 C 727.208 703.897, 727.327 699.490, 728.059 607.500 C 728.480 554.700, 729.112 509.925, 729.463 508 C 729.815 506.075, 730.804 500, 731.660 494.500 C 736.925 460.687, 750.876 442.340, 778.454 432.960 C 783.240 431.332, 788.021 430, 789.078 430 C 790.930 430, 791 428.947, 790.992 401.250 L 790.984 372.500 780.654 369.211 C 755.039 361.056, 741.375 346.762, 734.571 321 C 728.956 299.742, 728.784 296.378, 728.021 193 C 727.330 99.350, 727.273 97.307, 725.098 87.557 C 717.398 53.043, 698.281 28.853, 671.285 19.464 C 658.807 15.125, 648.737 14, 622.369 14 L 598 14 598 40.844 M 382.110 32.396 C 376.793 35.343, 377.074 25.099, 377.035 217.498 L 377 396.496 291.750 311.351 C 244.862 264.522, 205.517 225.711, 204.316 225.104 C 201.310 223.585, 196.433 223.721, 193.200 225.415 C 190.102 227.038, 184.766 232.474, 183.120 235.684 C 181.691 238.471, 181.683 243.504, 183.104 246.316 C 183.711 247.517, 222.972 287.313, 270.352 334.750 L 356.496 421 273.198 421 C 182.748 421, 185.772 420.816, 183.195 426.472 C 181.651 429.860, 181.651 442.140, 183.195 445.528 C 185.768 451.177, 182.925 451, 271.194 451 L 352.487 451 323.349 480.250 C 307.323 496.338, 293.713 510.483, 293.105 511.684 C 291.683 514.494, 291.690 519.528, 293.120 522.316 C 294.766 525.526, 300.102 530.962, 303.200 532.585 C 306.434 534.279, 311.310 534.415, 314.316 532.895 C 315.517 532.288, 333.488 514.852, 354.250 494.150 L 392 456.510 429.750 494.150 C 450.512 514.852, 468.483 532.288, 469.684 532.895 C 472.690 534.415, 477.566 534.279, 480.800 532.585 C 483.898 530.962, 489.234 525.526, 490.880 522.316 C 492.310 519.528, 492.317 514.494, 490.895 511.684 C 490.287 510.483, 476.677 496.338, 460.651 480.250 L 431.513 451 512.806 451 C 601.075 451, 598.232 451.177, 600.805 445.528 C 602.349 442.140, 602.349 429.860, 600.805 426.472 C 598.228 420.816, 601.252 421, 510.802 421 L 427.504 421 513.648 334.750 C 561.028 287.313, 600.289 247.517, 600.896 246.316 C 602.317 243.504, 602.309 238.471, 600.880 235.684 C 599.234 232.474, 593.898 227.038, 590.800 225.415 C 587.567 223.721, 582.690 223.585, 579.684 225.104 C 578.483 225.711, 539.138 264.522, 492.250 311.351 L 407 396.496 407 217.795 C 407 81.377, 406.717 38.474, 405.805 36.472 C 405.148 35.030, 403.371 33.209, 401.855 32.425 C 398.345 30.610, 385.366 30.591, 382.110 32.396 M 382.907 582.009 C 363.999 584.983, 350.838 596.882, 344.315 616.901 C 341.902 624.306, 341.384 648.134, 343.436 657.357 C 348.674 680.902, 364.575 695.080, 387.500 696.647 C 403.008 697.707, 415.755 693.899, 424.832 685.495 C 433.015 677.919, 436.236 671.457, 438.414 658.250 L 438.950 655 427.494 655 L 416.038 655 415.447 657.750 C 414.257 663.280, 411.577 668.149, 407.889 671.481 C 397.784 680.610, 379.355 677.936, 371.955 666.267 C 366.719 658.011, 365.494 652.784, 365.563 639 C 365.616 628.550, 365.990 625.574, 367.846 620.855 C 372.934 607.912, 380.839 601.981, 392.946 602.022 C 403.997 602.059, 410.961 606.800, 414.346 616.591 L 415.698 620.500 426.989 620.784 L 438.281 621.068 437.679 616.674 C 435.481 600.636, 423.775 587.667, 407.650 583.405 C 400.673 581.561, 389.695 580.941, 382.907 582.009 M 195 584.397 C 195 585.199, 201.750 609.711, 210 638.868 C 218.250 668.024, 225 692.132, 225 692.440 C 225 692.748, 229.877 693, 235.838 693 L 246.676 693 251.249 671.250 C 253.763 659.288, 257.536 641.288, 259.632 631.250 C 261.728 621.212, 263.703 613, 264.022 613 C 264.341 613, 268.424 630.888, 273.097 652.750 L 281.592 692.500 292.430 692.500 L 303.267 692.500 318.119 639 C 326.287 609.575, 332.977 584.938, 332.985 584.250 C 332.996 583.317, 329.883 583, 320.707 583 L 308.415 583 301.063 620.750 C 297.019 641.513, 293.420 659.310, 293.064 660.301 C 292.697 661.324, 288.768 645.140, 283.959 622.801 L 275.500 583.500 263.750 583.218 C 257.288 583.063, 252 583.305, 252 583.755 C 252 585.524, 236.938 657.615, 236.203 659.364 C 235.685 660.595, 232.701 648.037, 227.410 622.364 L 219.400 583.500 207.200 583.219 C 197.049 582.986, 195 583.183, 195 584.397 M 456 638 L 456 693 467.500 693 L 479 693 479 638 L 479 583 467.500 583 L 456 583 456 638 M 529.482 584.250 C 529.231 584.938, 520.665 609.055, 510.445 637.845 C 500.226 666.635, 491.616 690.837, 491.313 691.627 C 490.849 692.837, 492.704 693.019, 503.065 692.782 L 515.369 692.500 518.907 681.730 L 522.445 670.960 542.406 671.230 L 562.367 671.500 565.900 682.250 L 569.432 693 581.216 693 C 587.697 693, 593.012 692.663, 593.027 692.250 C 593.042 691.837, 584.646 667.087, 574.370 637.250 L 555.685 583 542.811 583 C 533.422 583, 529.814 583.338, 529.482 584.250 M 535.684 631.438 C 532.026 642.398, 529.189 651.522, 529.380 651.713 C 529.570 651.904, 535.564 651.934, 542.698 651.780 L 555.670 651.500 549.003 631.505 L 542.336 611.510 535.684 631.438" stroke="none" fill="#fffcfc" fill-rule="evenodd"/><path d="" stroke="none" fill="#fcfcfc" fill-rule="evenodd"/></svg>